<svg version="1.1" id="Layer_1" xmlns="http://www.w3.org/2000/svg" xmlns:xlink="http://www.w3.org/1999/xlink" x="0px" y="0px"
	 width="100%" viewBox="0 0 380 480" enable-background="new 0 0 380 480" xml:space="preserve">
<path fill="#292D53" opacity="1.000000" stroke="none" 
	d="
M1.000006,436.000000 
	C1.000000,316.978577 1.000000,197.957138 1.360906,78.414406 
	C2.387762,76.431847 3.183839,75.015030 3.700204,73.502693 
	C11.840173,49.662354 34.943626,32.809483 59.617226,32.900150 
	C133.422836,33.171364 207.230255,33.076237 281.036499,32.909775 
	C291.660980,32.885815 301.541718,34.986767 310.591919,40.340721 
	C329.529968,51.544167 340.855560,67.901772 340.900269,90.262054 
	C341.122833,201.554626 341.004333,312.847900 340.986206,424.140930 
	C340.985779,426.629059 341.086914,429.188629 340.574188,431.594116 
	C335.507629,455.364288 321.527222,471.258057 298.399597,479.022339 
	C297.481873,479.330414 296.794647,480.325165 296.000000,481.000000 
	C212.978561,481.000000 129.957138,481.000000 46.414288,480.639160 
	C45.547333,479.940918 45.258484,479.418488 44.848125,479.292786 
	C23.645721,472.799011 9.609069,459.078094 2.880914,437.897797 
	C2.640918,437.142273 1.644106,436.627136 1.000006,436.000000 
M140.030029,217.681488 
	C131.161041,217.663971 124.135216,221.605621 118.165428,228.358002 
	C110.736107,218.741196 100.878075,216.207489 89.570831,216.838669 
	C81.930229,217.265182 74.246506,216.897263 66.582222,216.925873 
	C49.409191,216.990021 38.033009,228.300217 37.999203,245.360870 
	C37.972126,259.023438 38.331905,272.696533 37.909306,286.346039 
	C37.368843,303.802368 49.870106,318.455383 74.265564,315.640778 
	C75.108955,315.543488 76.151413,314.882690 76.614494,314.168854 
	C78.771767,310.843597 80.757751,307.407196 82.785873,304.042297 
	C73.526886,297.291504 71.945587,294.170197 71.940468,282.913757 
	C71.935020,270.917328 71.865913,258.920288 71.964363,246.924637 
	C72.064774,234.688736 79.763138,227.329834 92.244461,227.327408 
	C105.069862,227.324905 112.872185,234.771225 112.909561,247.127991 
	C112.946350,259.290924 112.605438,271.464508 113.010818,283.614044 
	C113.387695,294.909485 109.650291,303.098389 97.809311,306.639801 
	C99.529305,309.951080 101.104317,312.983215 102.624367,315.909576 
	C114.453049,313.370331 122.811348,302.773712 122.917328,290.380402 
	C123.019615,278.418671 122.939476,266.455414 122.939476,254.298630 
	C129.876541,252.853577 136.334976,251.308868 142.870773,250.235001 
	C145.916977,249.734482 146.908524,248.654144 147.098572,245.493652 
	C147.778168,234.191177 156.141113,227.698196 168.954071,228.088409 
	C179.923889,228.422485 187.754547,235.917938 187.875443,246.585434 
	C188.028351,260.079681 188.011780,273.577942 187.881622,287.072662 
	C187.778534,297.759003 180.451385,305.191132 169.771164,305.804688 
	C168.484772,305.878601 167.200287,305.985809 165.604401,306.099731 
	C165.831726,307.709991 166.128555,308.991180 166.174362,310.281281 
	C166.359665,315.499786 169.035751,316.698700 173.970963,316.161377 
	C187.125610,314.729248 197.764114,303.375946 197.905899,289.700500 
	C198.054443,275.372955 197.947845,261.042694 197.941116,246.713638 
	C197.932800,228.987228 186.773514,217.791855 168.932358,217.676727 
	C159.602219,217.616516 150.271317,217.669235 140.030029,217.681488 
M276.046295,290.536987 
	C274.084717,280.687927 269.192932,273.125275 259.085388,270.265106 
	C247.217392,266.906860 235.448395,267.080627 223.891541,272.063232 
	C218.965256,274.187164 215.789368,276.873505 216.916550,282.867676 
	C217.401642,285.447266 216.919998,288.193359 217.088379,290.850403 
	C217.971085,304.779297 229.301895,315.865417 243.241058,316.135132 
	C254.402679,316.351135 265.576447,316.362457 276.736816,316.110626 
	C290.796814,315.793427 302.584503,304.240295 302.856903,290.246521 
	C303.164978,274.420044 303.126160,258.579895 302.873291,242.751541 
	C302.665955,229.771774 292.021515,217.792007 279.320068,217.093628 
	C266.366394,216.381348 253.303421,216.308624 240.360611,217.115631 
	C226.656036,217.970139 215.549072,232.218506 217.628708,244.982468 
	C228.576263,247.249710 239.583923,249.529404 251.207199,251.936600 
	C251.207199,249.406616 251.118713,247.434540 251.221786,245.472534 
	C251.810638,234.263458 259.553589,227.256683 271.376862,227.181091 
	C284.119507,227.099625 292.357788,233.698563 292.689758,245.201477 
	C293.098175,259.355225 293.027985,273.535492 292.697418,287.693359 
	C292.484344,296.818176 286.235565,303.656067 278.133972,304.652191 
	C277.481079,300.223755 276.827606,295.791290 276.046295,290.536987 
z"/>
<path fill="#000000" opacity="1.000000" stroke="none" 
	d="
M296.468658,481.000000 
	C296.794647,480.325165 297.481873,479.330414 298.399597,479.022339 
	C321.527222,471.258057 335.507629,455.364288 340.574188,431.594116 
	C341.086914,429.188629 340.985779,426.629059 340.986206,424.140930 
	C341.004333,312.847900 341.122833,201.554626 340.900269,90.262054 
	C340.855560,67.901772 329.529968,51.544167 310.591919,40.340721 
	C301.541718,34.986767 291.660980,32.885815 281.036499,32.909775 
	C207.230255,33.076237 133.422836,33.171364 59.617226,32.900150 
	C34.943626,32.809483 11.840173,49.662354 3.700204,73.502693 
	C3.183839,75.015030 2.387762,76.431847 1.360906,77.946548 
	C1.000000,52.402836 1.000000,26.805670 1.000000,1.000000 
	C29.020550,1.000000 57.041615,1.000000 85.519142,1.420226 
	C85.650429,5.621665 85.112083,9.399078 85.044609,13.184883 
	C84.905487,20.989920 85.008888,20.998659 92.920944,20.998869 
	C167.387772,21.000830 241.854614,20.971777 316.321381,21.036728 
	C325.549835,21.044777 334.490692,22.562963 342.394775,27.908976 
	C355.733887,36.931007 360.972412,49.990761 360.977539,65.511330 
	C361.017456,185.791061 360.998260,306.070801 361.012421,426.350555 
	C361.012665,428.524445 361.198822,430.698334 361.337891,433.739868 
	C370.345062,426.287292 374.859009,417.326202 378.603271,407.829681 
	C379.146362,406.452240 380.188721,405.271667 381.000000,404.000000 
	C381.000000,429.597168 381.000000,455.194336 381.000000,481.000000 
	C352.979462,481.000000 324.958374,481.000000 296.468658,481.000000 
z"/>
<path fill="#292D53" opacity="1.000000" stroke="none" 
	d="
M381.000000,403.531372 
	C380.188721,405.271667 379.146362,406.452240 378.603271,407.829681 
	C374.859009,417.326202 370.345062,426.287292 361.337891,433.739868 
	C361.198822,430.698334 361.012665,428.524445 361.012421,426.350555 
	C360.998260,306.070801 361.017456,185.791061 360.977539,65.511330 
	C360.972412,49.990761 355.733887,36.931007 342.394775,27.908976 
	C334.490692,22.562963 325.549835,21.044777 316.321381,21.036728 
	C241.854614,20.971777 167.387772,21.000830 92.920944,20.998869 
	C85.008888,20.998659 84.905487,20.989920 85.044609,13.184883 
	C85.112083,9.399078 85.650429,5.621665 85.987801,1.420226 
	C169.020889,1.000000 252.041794,1.000000 335.583313,1.361432 
	C336.448853,2.060836 336.736938,2.584569 337.146912,2.710149 
	C358.350159,9.204649 372.390045,22.923613 379.115967,44.107563 
	C379.355408,44.861744 380.354797,45.374645 381.000000,46.000000 
	C381.000000,165.020889 381.000000,284.041779 381.000000,403.531372 
z"/>
<path fill="#000000" opacity="1.000000" stroke="none" 
	d="
M381.000000,45.531342 
	C380.354797,45.374645 379.355408,44.861744 379.115967,44.107563 
	C372.390045,22.923613 358.350159,9.204649 337.146912,2.710149 
	C336.736938,2.584569 336.448853,2.060836 336.051941,1.361432 
	C350.926697,1.000000 365.853424,1.000000 381.000000,1.000000 
	C381.000000,15.686830 381.000000,30.374756 381.000000,45.531342 
z"/>
<path fill="#000000" opacity="1.000000" stroke="none" 
	d="
M1.000006,436.468658 
	C1.644106,436.627136 2.640918,437.142273 2.880914,437.897797 
	C9.609069,459.078094 23.645721,472.799011 44.848125,479.292786 
	C45.258484,479.418488 45.547333,479.940918 45.946434,480.639160 
	C31.073294,481.000000 16.146585,481.000000 1.000000,481.000000 
	C1.000000,466.313171 1.000000,451.625244 1.000006,436.468658 
z"/>
<path fill="#EBB72B" opacity="1.000000" stroke="none" 
	d="
M140.485397,217.676208 
	C150.271317,217.669235 159.602219,217.616516 168.932358,217.676727 
	C186.773514,217.791855 197.932800,228.987228 197.941116,246.713638 
	C197.947845,261.042694 198.054443,275.372955 197.905899,289.700500 
	C197.764114,303.375946 187.125610,314.729248 173.970963,316.161377 
	C169.035751,316.698700 166.359665,315.499786 166.174362,310.281281 
	C166.128555,308.991180 165.831726,307.709991 165.604401,306.099731 
	C167.200287,305.985809 168.484772,305.878601 169.771164,305.804688 
	C180.451385,305.191132 187.778534,297.759003 187.881622,287.072662 
	C188.011780,273.577942 188.028351,260.079681 187.875443,246.585434 
	C187.754547,235.917938 179.923889,228.422485 168.954071,228.088409 
	C156.141113,227.698196 147.778168,234.191177 147.098572,245.493652 
	C146.908524,248.654144 145.916977,249.734482 142.870773,250.235001 
	C136.334976,251.308868 129.876541,252.853577 122.939476,254.298630 
	C122.939476,266.455414 123.019615,278.418671 122.917328,290.380402 
	C122.811348,302.773712 114.453049,313.370331 102.624367,315.909576 
	C101.104317,312.983215 99.529305,309.951080 97.809311,306.639801 
	C109.650291,303.098389 113.387695,294.909485 113.010818,283.614044 
	C112.605438,271.464508 112.946350,259.290924 112.909561,247.127991 
	C112.872185,234.771225 105.069862,227.324905 92.244461,227.327408 
	C79.763138,227.329834 72.064774,234.688736 71.964363,246.924637 
	C71.865913,258.920288 71.935020,270.917328 71.940468,282.913757 
	C71.945587,294.170197 73.526886,297.291504 82.785873,304.042297 
	C80.757751,307.407196 78.771767,310.843597 76.614494,314.168854 
	C76.151413,314.882690 75.108955,315.543488 74.265564,315.640778 
	C49.870106,318.455383 37.368843,303.802368 37.909306,286.346039 
	C38.331905,272.696533 37.972126,259.023438 37.999203,245.360870 
	C38.033009,228.300217 49.409191,216.990021 66.582222,216.925873 
	C74.246506,216.897263 81.930229,217.265182 89.570831,216.838669 
	C100.878075,216.207489 110.736107,218.741196 118.165428,228.358002 
	C124.135216,221.605621 131.161041,217.663971 140.485397,217.676208 
z"/>
<path fill="#EAB72C" opacity="1.000000" stroke="none" 
	d="
M276.110229,290.947937 
	C276.827606,295.791290 277.481079,300.223755 278.133972,304.652191 
	C286.235565,303.656067 292.484344,296.818176 292.697418,287.693359 
	C293.027985,273.535492 293.098175,259.355225 292.689758,245.201477 
	C292.357788,233.698563 284.119507,227.099625 271.376862,227.181091 
	C259.553589,227.256683 251.810638,234.263458 251.221786,245.472534 
	C251.118713,247.434540 251.207199,249.406616 251.207199,251.936600 
	C239.583923,249.529404 228.576263,247.249710 217.628708,244.982468 
	C215.549072,232.218506 226.656036,217.970139 240.360611,217.115631 
	C253.303421,216.308624 266.366394,216.381348 279.320068,217.093628 
	C292.021515,217.792007 302.665955,229.771774 302.873291,242.751541 
	C303.126160,258.579895 303.164978,274.420044 302.856903,290.246521 
	C302.584503,304.240295 290.796814,315.793427 276.736816,316.110626 
	C265.576447,316.362457 254.402679,316.351135 243.241058,316.135132 
	C229.301895,315.865417 217.971085,304.779297 217.088379,290.850403 
	C216.919998,288.193359 217.401642,285.447266 216.916550,282.867676 
	C215.789368,276.873505 218.965256,274.187164 223.891541,272.063232 
	C235.448395,267.080627 247.217392,266.906860 259.085388,270.265106 
	C269.192932,273.125275 274.084717,280.687927 276.110229,290.947937 
M267.918823,303.319122 
	C266.897217,297.956665 266.408691,292.418579 264.715027,287.277527 
	C262.730743,281.254272 258.059265,278.782867 251.432358,279.006897 
	C250.513275,287.920166 250.917145,296.535095 259.147797,302.194061 
	C261.431213,303.764008 264.924103,303.574951 267.918823,303.319122 
z"/>
<path fill="#2F3151" opacity="1.000000" stroke="none" 
	d="
M267.890442,303.756012 
	C264.924103,303.574951 261.431213,303.764008 259.147797,302.194061 
	C250.917145,296.535095 250.513275,287.920166 251.432358,279.006897 
	C258.059265,278.782867 262.730743,281.254272 264.715027,287.277527 
	C266.408691,292.418579 266.897217,297.956665 267.890442,303.756012 
z"/>
</svg>